<svg width="24" height="24" viewBox="0 0 24 24" fill="none" xmlns="http://www.w3.org/2000/svg">
<path d="M14.3472 10.4643L13.9356 9.99388C13.6628 9.68215 13.6944 9.20833 14.0061 8.93556C14.3178 8.6628 14.7917 8.69439 15.0644 9.00612L16.5617 10.7173C16.6775 10.8481 16.7484 11.0197 16.75 11.2077L16.75 11.2143L16.75 11.2208C16.7484 11.4086 16.6778 11.5798 16.5624 11.7105L15.0644 13.4224C14.7917 13.7342 14.3178 13.7658 14.0061 13.493C13.6944 13.2202 13.6628 12.7464 13.9356 12.4347L14.3472 11.9643H11C10.5858 11.9643 10.25 11.6285 10.25 11.2143C10.25 10.8001 10.5858 10.4643 11 10.4643H14.3472Z" fill="#2B1404"/>
<path d="M8.65279 15.0357L9.0644 14.5653C9.33716 14.2536 9.30557 13.7798 8.99385 13.507C8.68212 13.2342 8.2083 13.2658 7.93554 13.5775L6.43784 15.2892C6.32092 15.4215 6.24997 15.5953 6.24997 15.7857C6.24997 15.9762 6.32097 16.1501 6.43795 16.2824L7.93554 17.9939C8.2083 18.3056 8.68212 18.3372 8.99385 18.0644C9.30557 17.7917 9.33716 17.3179 9.0644 17.0061L8.65279 16.5357H12C12.4142 16.5357 12.75 16.1999 12.75 15.7857C12.75 15.3715 12.4142 15.0357 12 15.0357H8.65279Z" fill="#2B1404"/>
<path fill-rule="evenodd" clip-rule="evenodd" d="M2.51701 8.2963C2.3461 5.56173 4.51786 3.25 7.25776 3.25H11.5C12.7426 3.25 13.75 4.25736 13.75 5.5C13.75 5.91421 14.0857 6.25 14.5 6.25H16.8463C19.5238 6.25 21.6345 8.52936 21.4292 11.1989L21.0318 16.3643C20.8415 18.839 18.7779 20.75 16.2958 20.75H7.75776C5.24946 20.75 3.17347 18.7997 3.01701 16.2963L2.51701 8.2963ZM7.25776 4.75C5.38309 4.75 3.89715 6.33171 4.01409 8.20273L4.51409 16.2027C4.62114 17.9156 6.04155 19.25 7.75776 19.25H16.2958C17.9941 19.25 19.406 17.9425 19.5363 16.2493L19.9336 11.0839C20.0719 9.2855 18.65 7.75 16.8463 7.75H14.5C13.2573 7.75 12.25 6.74264 12.25 5.5C12.25 5.08579 11.9142 4.75 11.5 4.75H7.25776Z" fill="#2B1404"/>
</svg>
