<svg width="24" height="24" viewBox="0 0 24 24" fill="none" xmlns="http://www.w3.org/2000/svg">
<path fill-rule="evenodd" clip-rule="evenodd" d="M12.75 4C12.75 3.58579 12.4142 3.25 12 3.25C11.5858 3.25 11.25 3.58579 11.25 4V5.25H11C8.92893 5.25 7.25 6.92893 7.25 9C7.25 11.0711 8.92893 12.75 11 12.75H11.25V17.2441C9.85392 17.1523 8.75 15.9908 8.75 14.5714C8.75 14.1572 8.41421 13.8214 8 13.8214C7.58579 13.8214 7.25 14.1572 7.25 14.5714C7.25 16.8194 9.02507 18.6527 11.25 18.7463V20C11.25 20.4142 11.5858 20.75 12 20.75C12.4142 20.75 12.75 20.4142 12.75 20V18.75H13C15.0711 18.75 16.75 17.0711 16.75 15C16.75 12.9289 15.0711 11.25 13 11.25H12.75V6.75586C14.1461 6.84775 15.25 8.00924 15.25 9.42857C15.25 9.84278 15.5858 10.1786 16 10.1786C16.4142 10.1786 16.75 9.84278 16.75 9.42857C16.75 7.18064 14.9749 5.34729 12.75 5.25375V4ZM11.25 6.75H11C9.75736 6.75 8.75 7.75736 8.75 9C8.75 10.2426 9.75736 11.25 11 11.25H11.25V6.75ZM12.75 12.75V17.25H13C14.2426 17.25 15.25 16.2426 15.25 15C15.25 13.7574 14.2426 12.75 13 12.75H12.75Z" fill="#2B1404"/>
</svg>
