<svg width="196" height="72" viewBox="0 0 196 72" fill="none" xmlns="http://www.w3.org/2000/svg">
<path d="M42.707 17.6527C43.0158 17.6575 43.3959 17.6853 43.8252 17.7396C44.6851 17.8484 45.7799 18.0666 46.9531 18.4398C49.28 19.1801 52.0323 20.5674 53.8027 23.0365C55.5217 25.4338 56.0191 27.5874 56.0635 29.1781C56.0758 29.6199 56.0506 30.015 56.0107 30.3568L60.0039 29.6L60.6748 29.473L60.9688 30.0902L63.8789 36.2015L64.3096 37.1068L63.3584 37.4232C63.3578 37.4234 63.3562 37.4236 63.3545 37.4242C63.351 37.4254 63.3455 37.4274 63.3379 37.4301C63.3219 37.4355 63.2963 37.4447 63.2627 37.4564C63.1954 37.4799 63.0934 37.5161 62.958 37.5658C62.6865 37.6655 62.2809 37.8192 61.7539 38.0326C60.6999 38.4595 59.1595 39.1248 57.2305 40.0746C53.3723 41.9741 47.9607 45.0095 41.7754 49.5424C35.3354 54.262 29.1691 54.8968 24.6055 54.3304C22.3317 54.0483 20.462 53.4696 19.1572 52.9594C18.5044 52.7041 17.9906 52.4657 17.6367 52.2885C17.4598 52.1998 17.3227 52.126 17.2275 52.0736C17.1883 52.052 17.1566 52.0331 17.1318 52.0189L13.5127 50.4965L12.7344 50.1683L13.0234 49.3763L14.9854 44.0023L15.1973 43.4203H15.4902C14.9894 42.9478 14.4266 42.3548 13.8193 41.6146C10.7148 40.3026 9.11006 38.2117 8.2959 36.4105C7.88334 35.4977 7.67624 34.6664 7.57227 34.0599C7.52024 33.7563 7.49408 33.5065 7.48047 33.3285C7.47367 33.2396 7.46965 33.1682 7.46777 33.1166C7.46684 33.0908 7.4661 33.0698 7.46582 33.0541V33.0238C7.46707 33.0233 7.49971 33.0228 8.35156 33.0228H7.46582V32.2123L8.27246 32.141L8.27539 32.14C8.27813 32.1398 8.28279 32.1397 8.28906 32.139C8.30236 32.1377 8.32374 32.1353 8.35254 32.1322C8.41026 32.126 8.49863 32.1159 8.61621 32.101C8.85196 32.0709 9.20547 32.0214 9.66406 31.9437C10.5813 31.7884 11.9205 31.5212 13.5879 31.0756C16.7987 30.2175 21.2223 28.696 26.1973 26.0424C25.8791 24.5856 25.7062 23.6965 25.6133 23.1576C25.5602 22.8497 25.5318 22.6509 25.5166 22.5228C25.509 22.4585 25.5038 22.4093 25.501 22.3715C25.4996 22.3526 25.4987 22.3358 25.498 22.3207C25.4977 22.3131 25.4982 22.3053 25.498 22.2982C25.498 22.2947 25.4971 22.2909 25.4971 22.2875V22.2777C25.4975 22.2771 25.5161 22.2767 26.3828 22.2767H25.4971V21.5375L26.2256 21.4047H26.2266C26.2277 21.4045 26.23 21.4041 26.2324 21.4037C26.2372 21.4028 26.2444 21.4015 26.2539 21.3998C26.2733 21.3962 26.3026 21.3912 26.3408 21.3842C26.4173 21.3701 26.5306 21.349 26.6768 21.3217C26.9692 21.267 27.3938 21.1872 27.9199 21.0853C28.9727 20.8815 30.4323 20.5905 32.0586 20.2435C35.3239 19.5469 39.2186 18.6324 41.8545 17.7435C42.1103 17.6573 42.4435 17.6487 42.707 17.6527Z" fill="#99755B" stroke="#F3F2E8" stroke-width="1.77153"/>
<path d="M37.4795 26.0283C39.32 25.7427 41.048 25.9107 42.3643 26.8818C44.9584 28.7961 47.7426 30.8726 49.8779 32.4707C50.9456 33.2697 51.8516 33.9491 52.4902 34.4287C52.8093 34.6683 53.0616 34.8584 53.2344 34.9883C53.3207 35.0532 53.3878 35.104 53.4326 35.1377C53.4509 35.1515 53.4656 35.1627 53.4766 35.1709L58.6377 34.1025L58.6855 34.0928L58.707 34.1367L59.4033 35.5469L59.4297 35.6006L59.377 35.6299V35.6309C59.3765 35.6311 59.3749 35.6314 59.374 35.6318C59.3722 35.6328 59.3696 35.6348 59.3662 35.6367C59.359 35.6408 59.3481 35.6464 59.334 35.6543C59.3054 35.6703 59.2628 35.6943 59.207 35.7256C59.0952 35.7884 58.93 35.8819 58.7168 36.002C58.2905 36.2421 57.6716 36.5905 56.9033 37.0264C55.3662 37.8984 53.2291 39.1185 50.8291 40.5078C46.0287 43.2867 40.1767 46.7446 35.9707 49.4639C31.7433 52.1969 27.2788 51.9761 23.876 51.0752C22.1746 50.6247 20.7368 50.0044 19.7246 49.4961C19.2186 49.242 18.8185 49.0152 18.5449 48.8525C18.4082 48.7712 18.3026 48.7054 18.2314 48.6602C18.196 48.6376 18.1685 48.6203 18.1504 48.6084C18.1414 48.6025 18.1345 48.5978 18.1299 48.5947C18.1279 48.5934 18.1261 48.5926 18.125 48.5918L18.123 48.5908V48.5898L18.0801 48.5615L18.0996 48.5137L18.6689 47.1035L18.7002 47.0254L18.7666 47.0771C19.3924 47.5731 20.3131 47.9563 21.3965 48.2363C22.4786 48.516 23.7186 48.6915 24.9795 48.7783C27.503 48.9521 30.1027 48.7671 31.6816 48.3418C36.229 47.1169 38.8956 45.6093 40.9307 44.207C41.4398 43.8562 41.9099 43.5119 42.3604 43.1797C42.8106 42.8477 43.242 42.527 43.6729 42.2256C44.5348 41.6227 45.3975 41.093 46.416 40.6875C48.9283 39.6874 52.2212 38.0366 54.8564 36.5293L43.1045 40.001L43.0225 40.0254V39.2295C43.0156 39.2323 43.0085 39.2361 43.001 39.2393C42.931 39.2682 42.8303 39.3091 42.709 39.3574C42.4663 39.4541 42.1389 39.5804 41.8018 39.6982C41.465 39.816 41.1163 39.9265 40.8311 39.9902C40.6887 40.022 40.5591 40.042 40.4541 40.0459C40.4018 40.0478 40.3536 40.0461 40.3115 40.0381C40.27 40.0301 40.2294 40.0156 40.1982 39.9893C40.1417 39.9412 40.1184 39.8736 40.1152 39.8027C40.1122 39.7331 40.1279 39.6552 40.1543 39.5762C40.2072 39.4177 40.3076 39.2364 40.415 39.0674C40.5231 38.8974 40.6409 38.7355 40.7314 38.6172C40.7503 38.5925 40.768 38.5695 40.7842 38.5488C40.7058 38.5602 40.6017 38.5758 40.4785 38.5918C40.195 38.6286 39.8102 38.6727 39.4053 38.7021C39.0009 38.7316 38.5748 38.7469 38.209 38.7246C38.0262 38.7135 37.8565 38.6933 37.7119 38.6602C37.5683 38.6272 37.4438 38.58 37.3545 38.5137C37.2601 38.4435 37.204 38.3395 37.1758 38.2188C37.1477 38.0984 37.1459 37.9568 37.1611 37.8066C37.1916 37.5064 37.292 37.1543 37.4111 36.8213C37.5306 36.4874 37.6701 36.1686 37.7793 35.9336C37.8339 35.8161 37.8815 35.7188 37.915 35.6514C37.9165 35.6485 37.9176 35.6453 37.9189 35.6426C37.8944 35.6437 37.8659 35.6461 37.834 35.6475C37.7106 35.6527 37.5342 35.6589 37.3223 35.6631C36.8982 35.6715 36.3305 35.6714 35.7588 35.6377C35.1883 35.604 34.6097 35.537 34.1641 35.4092C33.9416 35.3453 33.7476 35.2653 33.6045 35.1641C33.461 35.0625 33.3614 34.9347 33.3428 34.7764C33.3079 34.4796 33.462 34.2047 33.7051 33.9639C33.9489 33.7223 34.292 33.5053 34.6582 33.3193C35.3911 32.9473 36.2361 32.6933 36.6221 32.625C37.009 32.5566 38.0433 32.5056 39.0049 32.6152C39.4857 32.6701 39.9533 32.7662 40.3145 32.9219C40.6731 33.0765 40.9441 33.2991 40.9971 33.6172C41.0948 34.2056 40.9159 34.8404 40.7168 35.3223C40.6169 35.5641 40.5106 35.7697 40.4297 35.915C40.399 35.9701 40.3705 36.0162 40.3486 36.0527L49.9785 36.4287L43.8926 34.8301L43.8721 34.8252L43.8584 34.8076L40.2109 30.0889L25.3789 31.9434L25.1406 31.9736L25.333 31.8301H25.334L25.335 31.8281C25.3364 31.8271 25.3391 31.8262 25.3418 31.8242C25.3475 31.82 25.356 31.8129 25.3672 31.8047C25.3897 31.7882 25.4232 31.764 25.4668 31.7324C25.5545 31.6689 25.6844 31.5764 25.8506 31.46C26.1831 31.2271 26.6639 30.8986 27.2568 30.5166C28.4425 29.7527 30.0777 28.7733 31.876 27.9141C33.6738 27.055 35.6381 26.3141 37.4795 26.0283ZM41.708 40.9453C41.8892 40.8976 42.0993 40.9735 42.3223 41.1416C40.4093 42.224 38.4966 43.3069 36.5576 44.4268C36.5317 44.464 36.5114 44.467 36.4736 44.4961C35.8164 44.8892 35.1964 45.2534 34.5771 45.6172C34.5771 45.6172 34.6058 45.6398 34.5449 45.6299C33.5485 45.9391 32.632 46.3879 31.6729 46.5518C29.1942 46.9751 26.7009 47.0912 24.2383 46.3633C24.2344 46.2882 24.2312 46.2125 24.2861 46.1143C25.0049 45.7116 25.6652 45.3317 26.3252 44.9521C26.327 44.9524 26.3474 44.9541 26.3848 44.9238C26.554 44.7073 26.6843 44.5227 26.8145 44.3379C26.8611 44.3426 26.9078 44.3471 26.9873 44.3379C28.5873 44.3043 30.1629 44.3848 31.7197 44.2422C34.2922 44.0065 36.6378 42.9632 38.9404 41.7607C39.7852 41.3196 40.7771 41.1903 41.708 40.9453ZM31.127 40.9473C31.2005 40.9796 31.2218 41.0191 31.2705 41.127C31.5093 41.7256 31.8836 42.0272 32.4219 42.0986C32.4852 42.1404 32.5483 42.1823 32.5898 42.2412C31.2881 42.396 30.0107 42.5877 28.7275 42.6572C27.228 42.7384 25.7194 42.7489 24.2715 42.1953C24.3059 42.1835 24.3202 42.1582 24.3027 42.0996C26.5522 41.7041 28.8133 41.3289 31.127 40.9473ZM38.6152 39.5195C37.7706 40.7352 34.5732 42.0231 32.1504 41.0459C32.0989 40.9975 32.0965 40.9509 32.0781 40.8877C33.152 40.5401 34.2287 40.14 35.3359 39.8975C36.4101 39.6622 37.5158 39.5886 38.6152 39.5195ZM27.0059 38.2852C27.0061 38.3255 27.019 38.3606 27.0801 38.4492C27.2415 38.7497 27.3684 38.9905 27.4951 39.2314C27.4967 39.2296 27.5076 39.2193 27.5059 39.2686C27.8522 39.5775 28.2006 39.8333 28.5527 40.1074C28.5567 40.1256 28.5914 40.1325 28.5791 40.1709C27.8292 40.3997 27.0916 40.5901 26.3516 40.7803C26.3491 40.7802 26.3467 40.7852 26.3467 40.7852C24.9652 40.9266 23.5839 41.1712 22.2021 41.1748C21.2275 41.1773 20.2522 40.8524 19.2295 40.6699C19.1818 40.6659 19.176 40.6756 19.168 40.6436C19.1237 40.5843 19.0871 40.5568 19.0508 40.5293C18.9742 40.4439 18.8975 40.3576 18.7803 40.2168C18.7111 40.1147 18.6819 40.0683 18.6533 40.0215C18.6888 39.99 18.725 39.9581 18.8291 39.8965C20.9024 39.4378 22.905 38.9976 24.9131 38.5879C25.6032 38.4471 26.3082 38.3838 27.0059 38.2852ZM36.0322 37.0107C36.0964 37.039 36.1234 37.0472 36.1348 37.0918C36.0762 37.1924 36.0327 37.2566 35.9648 37.3242C35.9062 37.3401 35.8834 37.3648 35.8262 37.4102C35.5253 37.574 35.2745 37.7384 35.0137 37.8809C32.9921 38.9849 30.9462 39.8797 28.6738 38.6465C28.6735 38.6502 28.6811 38.6463 28.6689 38.6074C28.5374 38.4575 28.4177 38.3488 28.2988 38.2393C28.3084 38.1994 28.3316 38.1708 28.4307 38.1494C28.5478 38.1342 28.6023 38.1248 28.6562 38.1152C28.7679 38.1123 28.8799 38.1098 29.0801 38.0801C31.4441 37.699 33.7195 37.3449 36.0322 37.0107ZM24.2275 34.0977C24.4694 34.2552 24.6196 34.4127 24.7617 34.5781C25.2098 35.0998 25.6552 35.6241 26.1016 36.1475C26.1038 36.1447 26.1142 36.1329 26.1162 36.1602C26.1605 36.2136 26.2031 36.2367 26.2451 36.2598C26.0584 36.4004 25.8712 36.5405 25.5918 36.707C24.3546 36.9622 23.21 37.1916 22.0654 37.4209C21.9269 37.458 21.7882 37.4948 21.5527 37.5508C20.9135 37.6021 20.3712 37.6333 19.8291 37.668C18.8616 37.7299 17.8939 37.8431 16.9268 37.8389C16.3321 37.8362 15.7378 37.6549 15.1436 37.5537C15.1436 37.5537 15.1431 37.5628 15.127 37.5205C14.642 37.1738 14.1729 36.8698 13.7041 36.5654C13.7041 36.5654 13.7056 36.5432 13.6758 36.5049C13.3914 36.0892 13.1362 35.7121 12.8818 35.335C12.8818 35.335 12.9308 35.3359 13.0049 35.3311C15.1131 35.0977 17.1475 34.8676 19.1816 34.6416C20.2375 34.5243 21.2944 34.414 22.3506 34.3008C22.4436 34.2898 22.5367 34.2792 22.7246 34.2607C23.0829 34.2113 23.3462 34.1688 23.6094 34.127C23.7834 34.1182 23.9579 34.1102 24.2275 34.0977ZM32.4697 32.7236C32.1718 33.1467 31.8422 33.4904 31.5889 33.8887C31.1165 34.6314 31.2936 35.2849 32.0439 35.7549C32.0456 35.7536 32.0534 35.7512 32.0732 35.7852C32.4852 35.9253 32.874 36.0259 33.251 36.1484C33.2214 36.1997 33.2116 36.2319 33.209 36.2666C33.0176 36.3148 32.8262 36.3635 32.5762 36.4502C31.5695 36.4592 30.621 36.4289 29.6729 36.3994C29.6171 36.3939 29.5614 36.388 29.4404 36.3379C29.1802 36.2244 28.985 36.1558 28.79 36.0869C27.9032 35.573 27.0687 35.002 26.6387 33.8516C27.5908 33.6459 28.4875 33.4426 29.3877 33.2607C30.414 33.0535 31.4441 32.8651 32.4697 32.7236ZM42.2549 22.0654C43.8519 21.6787 45.3455 21.9867 46.8154 22.6318C48.5197 23.3799 50.0647 24.3742 51.0732 26.0654C51.3313 26.4981 51.5111 27.1413 51.417 27.6191C51.2361 28.5359 50.8333 29.404 50.4658 30.4541C48.6324 28.7298 47.0661 27.1367 47.3232 24.3604C46.0483 24.4537 44.7991 24.5456 43.4473 24.6543C43.0104 24.6882 42.676 24.7193 42.3418 24.7188C39.5139 24.714 36.6853 24.7041 33.8574 24.6953C33.4064 24.6311 32.955 24.5662 32.5039 24.502C32.4918 24.4522 32.4798 24.4023 32.4678 24.3525C33.118 24.1916 33.7666 24.0215 34.4189 23.8711C37.0308 23.2689 39.6493 22.6965 42.2549 22.0654Z" fill="#F3F2E8"/>
<path d="M84.4909 47.5V24.46H88.2431V44.3731H98.4466V47.5H84.4909ZM108.284 47.895C106.638 47.895 105.201 47.5329 103.972 46.8088C102.743 46.0627 101.778 45.0534 101.076 43.7807C100.396 42.4861 100.055 41.0049 100.055 39.3373C100.055 37.6038 100.396 36.1007 101.076 34.828C101.778 33.5553 102.743 32.5679 103.972 31.8657C105.223 31.1416 106.671 30.7795 108.317 30.7795C109.919 30.7795 111.312 31.1306 112.497 31.8328C113.682 32.513 114.615 33.4566 115.295 34.6634C115.975 35.8703 116.315 37.2417 116.315 38.7777C116.315 39.0849 116.304 39.3592 116.282 39.6006C116.282 39.8419 116.26 40.1053 116.216 40.3905H103.808C103.874 41.2463 104.093 42.0143 104.466 42.6945C104.839 43.3528 105.344 43.8685 105.98 44.2415C106.638 44.6145 107.384 44.801 108.218 44.801C109.118 44.801 109.875 44.6035 110.489 44.2086C111.126 43.8136 111.619 43.2431 111.97 42.497H115.887C115.58 43.4845 115.086 44.3841 114.406 45.196C113.748 46.0079 112.903 46.6662 111.872 47.1709C110.862 47.6536 109.666 47.895 108.284 47.895ZM103.841 37.7903H112.497C112.475 36.5834 112.047 35.6289 111.213 34.9267C110.38 34.2246 109.381 33.8735 108.218 33.8735C107.165 33.8735 106.21 34.1917 105.355 34.828C104.521 35.4643 104.016 36.4518 103.841 37.7903ZM116.619 47.5L122.116 39.3043L116.586 31.1745H120.733L124.518 36.7699L128.073 31.1745H132.056L126.559 39.3043L132.089 47.5H127.974L124.156 41.8717L120.601 47.5H116.619ZM134.012 47.5V24.46H137.732V47.5H134.012ZM146.379 47.895C145.37 47.895 144.426 47.7085 143.548 47.3354C142.693 46.9405 142.001 46.3699 141.475 45.6239C140.97 44.8778 140.718 43.9891 140.718 42.9578C140.718 41.729 141.025 40.7306 141.639 39.9626C142.254 39.1946 143.088 38.6351 144.141 38.284C145.194 37.911 146.357 37.7245 147.63 37.7245H151.711C151.711 36.8467 151.568 36.1336 151.283 35.585C150.998 35.0145 150.603 34.5976 150.098 34.3343C149.594 34.049 149.001 33.9064 148.321 33.9064C147.443 33.9064 146.675 34.1039 146.017 34.4989C145.359 34.8938 144.953 35.5411 144.799 36.4408H141.047C141.157 35.2559 141.552 34.2465 142.232 33.4127C142.934 32.5569 143.823 31.9096 144.898 31.4707C145.973 31.0099 147.125 30.7795 148.354 30.7795C149.934 30.7795 151.239 31.0758 152.271 31.6682C153.324 32.2387 154.114 33.0397 154.64 34.071C155.189 35.1023 155.463 36.2982 155.463 37.6586V42.6287C155.485 43.2211 155.628 43.649 155.891 43.9123C156.176 44.1757 156.615 44.3183 157.208 44.3402V47.5C156.286 47.5 155.496 47.4013 154.838 47.2038C154.18 47.0063 153.631 46.7101 153.192 46.3151C152.775 45.9201 152.435 45.4045 152.172 44.7681C151.645 45.6458 150.866 46.3919 149.835 47.0063C148.826 47.5987 147.674 47.895 146.379 47.895ZM147.334 44.8669C148.189 44.8669 148.935 44.6694 149.572 44.2744C150.23 43.8575 150.746 43.3089 151.119 42.6287C151.514 41.9265 151.711 41.1585 151.711 40.3247V40.2259H147.893C147.323 40.2259 146.774 40.3027 146.247 40.4563C145.721 40.6099 145.304 40.8623 144.997 41.2134C144.689 41.5425 144.536 42.0033 144.536 42.5958C144.536 43.3857 144.81 43.9672 145.359 44.3402C145.907 44.6913 146.566 44.8669 147.334 44.8669ZM159.662 47.5V31.1745H163.283L163.349 33.4127C163.897 32.5569 164.654 31.9096 165.62 31.4707C166.585 31.0099 167.595 30.7795 168.648 30.7795C170.557 30.7795 172.104 31.383 173.289 32.5898C174.474 33.7967 175.066 35.5741 175.066 37.9219V47.5H171.38V38.3827C171.38 37.0003 171.051 35.9142 170.392 35.1242C169.734 34.3343 168.769 33.9393 167.496 33.9393C166.223 33.9393 165.214 34.3672 164.468 35.223C163.744 36.0568 163.382 37.1978 163.382 38.6461V47.5H159.662ZM185.941 47.895C184.295 47.895 182.858 47.5329 181.629 46.8088C180.401 46.0627 179.435 45.0534 178.733 43.7807C178.053 42.4861 177.713 41.0049 177.713 39.3373C177.713 37.6038 178.053 36.1007 178.733 34.828C179.435 33.5553 180.401 32.5679 181.629 31.8657C182.88 31.1416 184.328 30.7795 185.974 30.7795C187.576 30.7795 188.969 31.1306 190.154 31.8328C191.339 32.513 192.272 33.4566 192.952 34.6634C193.632 35.8703 193.972 37.2417 193.972 38.7777C193.972 39.0849 193.961 39.3592 193.939 39.6006C193.939 39.8419 193.917 40.1053 193.874 40.3905H181.465C181.531 41.2463 181.75 42.0143 182.123 42.6945C182.496 43.3528 183.001 43.8685 183.637 44.2415C184.295 44.6145 185.042 44.801 185.875 44.801C186.775 44.801 187.532 44.6035 188.146 44.2086C188.783 43.8136 189.277 43.2431 189.628 42.497H193.544C193.237 43.4845 192.743 44.3841 192.063 45.196C191.405 46.0079 190.56 46.6662 189.529 47.1709C188.519 47.6536 187.324 47.895 185.941 47.895ZM181.498 37.7903H190.154C190.132 36.5834 189.704 35.6289 188.871 34.9267C188.037 34.2246 187.038 33.8735 185.875 33.8735C184.822 33.8735 183.868 34.1917 183.012 34.828C182.178 35.4643 181.673 36.4518 181.498 37.7903Z" fill="#2B1404"/>
</svg>
