<svg width="49" height="49" viewBox="0 0 49 49" fill="none" xmlns="http://www.w3.org/2000/svg">
<path d="M29.0645 12.0132C29.2746 12.0165 29.5331 12.0359 29.8253 12.0728C30.4105 12.1468 31.1557 12.2953 31.9542 12.5494C33.5376 13.0531 35.4104 13.9972 36.6153 15.6773C37.7851 17.3087 38.1241 18.7744 38.1544 19.857C38.1627 20.1578 38.1454 20.427 38.1182 20.6597L40.836 20.1451L41.293 20.0582L41.4922 20.4781L43.4727 24.6373L43.7667 25.2535L43.1192 25.4683L43.1046 25.4732C43.0937 25.4769 43.0766 25.4828 43.0538 25.4908C43.008 25.5068 42.9381 25.5321 42.8458 25.566C42.661 25.6338 42.3848 25.7382 42.0264 25.8834C41.3091 26.1739 40.2609 26.6268 38.9483 27.273C36.3226 28.5658 32.6393 30.6314 28.4297 33.7164C24.047 36.9283 19.851 37.3606 16.7452 36.9751C15.1978 36.7831 13.9252 36.3888 13.0372 36.0416C12.593 35.8679 12.2438 35.7051 12.003 35.5845C11.8828 35.5243 11.7894 35.4747 11.7247 35.439C11.6945 35.4224 11.67 35.4091 11.6524 35.399L9.19537 34.3658L8.66608 34.1421L8.86334 33.6031L10.1983 29.9459L10.3428 29.5503H10.5421C10.2005 29.2281 9.81675 28.8232 9.4024 28.3179C7.29151 27.4249 6.19934 26.0041 5.64557 24.7789C5.36492 24.1578 5.22415 23.5929 5.15338 23.1802C5.11793 22.9735 5.10015 22.8034 5.09088 22.6822C5.08624 22.6215 5.08337 22.5728 5.08209 22.5376C5.08146 22.5203 5.08131 22.5063 5.08112 22.4957V21.9224L5.62994 21.8736H5.6319L5.68463 21.8677C5.72394 21.8635 5.78444 21.8564 5.86432 21.8462C6.02467 21.8258 6.26466 21.7925 6.57623 21.7398C7.20047 21.6341 8.11231 21.4523 9.24713 21.149C11.4326 20.5649 14.4437 19.5287 17.8301 17.7222C17.6137 16.7314 17.494 16.127 17.4307 15.7603C17.3946 15.5507 17.3757 15.4149 17.3653 15.3277C17.3601 15.2841 17.3574 15.2509 17.3555 15.2251C17.3546 15.2122 17.353 15.2004 17.3526 15.19V15.1617C17.3526 15.1612 17.3524 15.1607 17.9551 15.1607H17.3526V14.6568L17.8477 14.5669H17.8526C17.8559 14.5663 17.8607 14.5652 17.8672 14.564C17.8805 14.5616 17.9008 14.5581 17.9268 14.5533C17.9789 14.5437 18.056 14.5289 18.1553 14.5103C18.3544 14.4731 18.6431 14.4185 19.001 14.3492C19.7175 14.2104 20.7107 14.013 21.8174 13.7769C24.0397 13.3028 26.6905 12.6807 28.4844 12.0757C28.6585 12.0171 28.8852 12.0105 29.0645 12.0132Z" fill="#99755B" stroke="#F3F2E8" stroke-width="1.20562"/>
<path d="M25.5071 17.7136C26.7596 17.5193 27.9357 17.6338 28.8314 18.2946C30.5967 19.5973 32.4915 21.0108 33.9446 22.0983C34.6711 22.642 35.2874 23.105 35.722 23.4314C35.9391 23.5944 36.1113 23.7238 36.2288 23.8122C36.2875 23.8564 36.3331 23.8908 36.3636 23.9138C36.3758 23.923 36.3865 23.9297 36.3939 23.9353L39.9066 23.2087L39.9388 23.2019L39.9534 23.2321L40.4271 24.1921L40.4456 24.2292L40.4095 24.2487L40.4017 24.2526C40.3968 24.2554 40.3897 24.26 40.3802 24.2653C40.3607 24.2763 40.3313 24.2928 40.2933 24.3142C40.2172 24.3569 40.105 24.4201 39.9603 24.5017C39.6701 24.6651 39.2488 24.9023 38.7259 25.1989C37.6798 25.7924 36.2254 26.6226 34.5921 27.5681C31.3252 29.4592 27.3432 31.8132 24.4808 33.6638C21.6038 35.5238 18.5642 35.3736 16.2484 34.7605C15.0906 34.4539 14.1119 34.0311 13.4232 33.6853C13.0789 33.5124 12.8066 33.3584 12.6204 33.2478C12.5275 33.1925 12.4559 33.1477 12.4075 33.1169C12.3835 33.1016 12.3652 33.0889 12.3528 33.0808C12.3468 33.0768 12.3414 33.0741 12.3382 33.072C12.3371 33.0712 12.336 33.0705 12.3353 33.07L12.3343 33.069L12.305 33.0495L12.3177 33.0173L12.7054 32.0573L12.7269 32.0036L12.7718 32.0397C13.1977 32.3772 13.8247 32.6373 14.5618 32.8278C15.2983 33.0181 16.1423 33.1379 17.0003 33.197C18.7175 33.3152 20.4864 33.1895 21.5609 32.9001C24.6557 32.0665 26.4707 31.04 27.8558 30.0856C28.2022 29.8469 28.5219 29.6125 28.8284 29.3864C29.1348 29.1605 29.4288 28.9431 29.722 28.738C30.3087 28.3276 30.8959 27.9671 31.5892 27.6911C33.2985 27.0106 35.5382 25.8866 37.3314 24.861L29.3343 27.2233L29.2796 27.2399V26.698C29.2749 26.6999 29.2702 26.7026 29.265 26.7048C29.2173 26.7245 29.1483 26.7519 29.0657 26.7849C28.9006 26.8507 28.678 26.9371 28.4485 27.0173C28.2196 27.0974 27.9825 27.1721 27.7884 27.2155C27.6915 27.2372 27.603 27.2519 27.5316 27.2546C27.4959 27.2559 27.4626 27.2542 27.4339 27.2487C27.4057 27.2433 27.378 27.2334 27.3568 27.2155C27.3183 27.1829 27.3023 27.1366 27.3001 27.0886C27.298 27.0412 27.3095 26.9881 27.3275 26.9343C27.3634 26.8264 27.432 26.7027 27.5052 26.5876C27.5786 26.4721 27.6585 26.3624 27.72 26.2819C27.7329 26.2651 27.7451 26.2492 27.7562 26.2351C27.7028 26.2428 27.632 26.2535 27.5482 26.2644C27.3553 26.2894 27.0932 26.3195 26.8177 26.3396C26.5424 26.3596 26.2522 26.3694 26.0032 26.3542C25.8789 26.3466 25.7637 26.3328 25.6653 26.3103C25.5676 26.2879 25.482 26.2567 25.4212 26.2116C25.3571 26.1639 25.3194 26.0925 25.3001 26.0105C25.281 25.9286 25.28 25.8323 25.2903 25.7302C25.3111 25.5258 25.3792 25.286 25.4603 25.0593C25.5416 24.832 25.6369 24.6147 25.7112 24.4548C25.7483 24.3751 25.7802 24.3092 25.803 24.2634C25.804 24.2615 25.8051 24.2593 25.806 24.2575C25.7893 24.2583 25.77 24.2595 25.7484 24.2605C25.6643 24.264 25.544 24.2683 25.3997 24.2712C25.1112 24.2769 24.7252 24.2775 24.3362 24.2546C23.9479 24.2317 23.5536 24.1853 23.2503 24.0983C23.0989 24.0549 22.9669 24.0003 22.8694 23.9314C22.7719 23.8623 22.7045 23.7753 22.6917 23.6677C22.6679 23.4657 22.7733 23.2789 22.9388 23.1149C23.1048 22.9505 23.3379 22.8021 23.5872 22.6755C24.0859 22.4223 24.6605 22.2493 24.9232 22.2028C25.1864 22.1563 25.8908 22.1223 26.5452 22.197C26.8721 22.2343 27.1902 22.2992 27.4359 22.405C27.6799 22.5103 27.8647 22.6621 27.9007 22.8786C27.9671 23.2789 27.8457 23.7109 27.7103 24.0388C27.6422 24.2034 27.57 24.3442 27.515 24.4431C27.4942 24.4804 27.4741 24.5111 27.4593 24.5358L34.015 24.7927L29.8714 23.7038L29.8568 23.7009L29.848 23.6892L27.3655 20.4782L17.2718 21.7399L17.1097 21.7605L17.2405 21.6628L17.2425 21.6618C17.2435 21.6611 17.2446 21.6593 17.2464 21.6579C17.2503 21.655 17.2564 21.6508 17.264 21.6452C17.2793 21.6339 17.3026 21.6169 17.3323 21.5954C17.392 21.5522 17.4803 21.4889 17.5931 21.4099C17.8193 21.2514 18.146 21.028 18.5491 20.7683C19.3561 20.2484 20.4697 19.5826 21.6937 18.9978C22.9172 18.4131 24.2539 17.9081 25.5071 17.7136ZM28.3841 27.8649C28.5074 27.8325 28.6512 27.8852 28.803 27.9997C27.5011 28.7364 26.1988 29.4729 24.8792 30.2351C24.8617 30.2601 24.848 30.2624 24.8226 30.2819C24.3753 30.5495 23.953 30.7971 23.5316 31.0446C23.5316 31.0446 23.5511 31.06 23.5101 31.0534C22.8319 31.2639 22.2078 31.5698 21.555 31.6814C19.8682 31.9694 18.1713 32.0478 16.4954 31.5524C16.4928 31.5014 16.4904 31.4502 16.5276 31.3835C17.0169 31.1094 17.4661 30.8508 17.9153 30.5925C17.9153 30.5925 17.9297 30.5946 17.9564 30.573C18.0714 30.4258 18.1599 30.3001 18.2484 30.1745C18.2802 30.1777 18.3122 30.1809 18.3665 30.1745C19.4554 30.1517 20.5277 30.2062 21.5872 30.1091C23.3378 29.9486 24.9342 29.2389 26.5013 28.4206C27.0761 28.1205 27.7507 28.0316 28.3841 27.8649ZM21.1839 27.8669C21.2339 27.8889 21.2485 27.9156 21.2816 27.989C21.4441 28.3964 21.6984 28.6015 22.0648 28.6501C22.1079 28.6786 22.1507 28.7076 22.179 28.7478C21.293 28.8531 20.4234 28.9837 19.5501 29.031C18.5296 29.0862 17.5032 29.0933 16.5179 28.7165C16.5414 28.7085 16.5513 28.691 16.5394 28.6511C18.0703 28.3819 19.6093 28.1267 21.1839 27.8669ZM26.2796 26.8952C25.7047 27.7225 23.529 28.5993 21.8802 27.9343C21.845 27.9013 21.8439 27.869 21.8314 27.8259C22.5621 27.5893 23.2948 27.318 24.0482 27.153C24.7791 26.9929 25.5314 26.9423 26.2796 26.8952ZM18.3782 26.0554C18.3785 26.0827 18.3877 26.1066 18.429 26.1667C18.539 26.3713 18.6259 26.5358 18.7122 26.6999C18.7122 26.6999 18.7203 26.6882 18.7191 26.7243C18.9549 26.9347 19.1922 27.109 19.4319 27.2956C19.435 27.3078 19.4578 27.3127 19.4495 27.3386C18.9393 27.4942 18.4375 27.6242 17.9339 27.7536C17.9322 27.7535 17.93 27.7565 17.93 27.7565C16.9899 27.8528 16.05 28.0188 15.1097 28.0212C14.4464 28.0229 13.7823 27.8026 13.0862 27.6784C13.0543 27.6757 13.0506 27.682 13.0452 27.6608C13.0149 27.6202 12.99 27.6006 12.9651 27.5817C12.913 27.5236 12.8604 27.4656 12.7806 27.3698C12.7336 27.3005 12.714 27.2688 12.6946 27.237C12.7188 27.2156 12.743 27.1939 12.8138 27.1521C14.225 26.8398 15.5886 26.5403 16.9554 26.2614C17.4248 26.1657 17.9037 26.1225 18.3782 26.0554ZM24.5218 25.1872C24.5655 25.2065 24.5844 25.2125 24.5921 25.2429C24.5522 25.3115 24.5221 25.355 24.4759 25.4011C24.436 25.4119 24.4203 25.4287 24.3812 25.4597C24.1764 25.5712 24.006 25.683 23.8284 25.78C22.4526 26.5314 21.0605 27.1398 19.514 26.3005C19.5133 26.3035 19.5186 26.3025 19.5101 26.2751C19.4205 26.173 19.34 26.0977 19.2591 26.0231C19.2657 25.9963 19.2819 25.9771 19.3489 25.9626C19.4284 25.9523 19.4656 25.9457 19.5023 25.9392C19.5782 25.9372 19.6543 25.9359 19.7903 25.9157C21.3992 25.6564 22.9478 25.4146 24.5218 25.1872ZM16.4886 23.2048C16.6531 23.312 16.7552 23.4204 16.8519 23.5329C17.1566 23.8877 17.4594 24.2444 17.763 24.6003C17.764 24.599 17.7723 24.5897 17.7737 24.6091C17.8037 24.6452 17.8322 24.6609 17.8607 24.6765C17.7336 24.7721 17.6064 24.8679 17.4163 24.9812C16.5745 25.1548 15.7957 25.3114 15.0169 25.4675C14.9227 25.4927 14.8283 25.5173 14.6683 25.5554C14.2332 25.5903 13.8634 25.6118 13.4944 25.6355C12.8362 25.6776 12.1779 25.7545 11.5198 25.7517C11.1151 25.7499 10.7104 25.6262 10.306 25.5573C10.306 25.5573 10.3062 25.5636 10.2952 25.5349C9.96513 25.2989 9.6456 25.0916 9.32648 24.8845C9.32649 24.8827 9.32604 24.868 9.30695 24.8435C9.11343 24.5606 8.93997 24.3042 8.76691 24.0476C8.76691 24.0476 8.8003 24.048 8.85089 24.0446C10.2856 23.8858 11.6697 23.7297 13.054 23.5759C13.7725 23.4961 14.4915 23.4205 15.2103 23.3435C15.2736 23.336 15.3372 23.3287 15.4651 23.3161C15.7091 23.2825 15.8885 23.2538 16.0677 23.2253C16.1862 23.2193 16.305 23.2134 16.4886 23.2048ZM22.097 22.2702C21.8943 22.5581 21.6707 22.7922 21.4984 23.0632C21.1769 23.5686 21.2964 24.0138 21.8069 24.3337C21.8069 24.3337 21.8116 24.3272 21.8275 24.3542C22.1079 24.4496 22.3726 24.5179 22.6292 24.6013C22.6091 24.6361 22.6017 24.6578 22.5999 24.6814C22.4699 24.7141 22.34 24.7475 22.1702 24.8064C21.4851 24.8124 20.8389 24.7923 20.1937 24.7722C20.1558 24.7684 20.1176 24.7642 20.0355 24.7302C19.8584 24.653 19.7257 24.6061 19.5931 24.5593C18.9895 24.2095 18.4219 23.8207 18.1292 23.0378C18.7773 22.8978 19.3876 22.7592 20.0003 22.6355C20.6986 22.4944 21.3992 22.3665 22.097 22.2702ZM28.7562 15.0173C29.8431 14.754 30.8602 14.9629 31.8607 15.4021C33.0205 15.9111 34.0717 16.588 34.7581 17.739C34.9338 18.0335 35.0557 18.4714 34.9915 18.7966C34.8684 19.4204 34.5951 20.0108 34.345 20.7253C33.0973 19.5518 32.0313 18.4683 32.2064 16.5788C31.3387 16.6424 30.4877 16.705 29.5677 16.779C29.2705 16.8021 29.0431 16.8233 28.8157 16.823C26.8913 16.8198 24.9667 16.8123 23.0423 16.8064C22.7354 16.7626 22.4283 16.7192 22.1214 16.6755C22.1132 16.6416 22.1042 16.6069 22.096 16.573C22.5385 16.4634 22.9801 16.3482 23.4241 16.2458C25.2014 15.836 26.9831 15.4467 28.7562 15.0173Z" fill="#F3F2E8"/>
</svg>
