<svg width="24" height="24" viewBox="0 0 24 24" fill="none" xmlns="http://www.w3.org/2000/svg">
<path d="M14.1 12C16.5852 12 18.6 9.98528 18.6 7.5C18.6 5.01472 16.5852 3 14.1 3C11.6147 3 9.59997 5.01472 9.59997 7.5C9.59997 9.98528 11.6147 12 14.1 12Z" fill="#2B1404"/>
<path d="M14.1 20.9999C18.0764 20.9999 21.3 19.1867 21.3 16.9499C21.3 14.7131 18.0764 12.8999 14.1 12.8999C10.1235 12.8999 6.89996 14.7131 6.89996 16.9499C6.89996 19.1867 10.1235 20.9999 14.1 20.9999Z" fill="#2B1404"/>
<path d="M9.09998 4.53223C9.09998 4.24587 8.88633 4 8.59998 4C6.39084 4 4.59998 5.79086 4.59998 8C4.59998 10.2091 6.39084 12 8.59998 12C8.88633 12 9.09998 11.7541 9.09998 11.4678V10.9533C9.09998 10.6932 8.86009 10.5 8.59998 10.5C7.21926 10.5 6.09998 9.38071 6.09998 8C6.09998 6.61929 7.21926 5.5 8.59998 5.5C8.86009 5.5 9.09998 5.30679 9.09998 5.04667V4.53223Z" fill="#2B1404"/>
<path d="M5.67812 13.5237C6.14334 13.3683 6.59998 13.7344 6.59998 14.2249C6.59998 14.5715 6.36537 14.8705 6.03853 14.9859C5.73484 15.0932 5.45888 15.2145 5.21493 15.3459C4.23606 15.873 4.09998 16.3498 4.09998 16.5C4.09998 16.6503 4.23606 17.1271 5.21493 17.6542C5.45888 17.7856 5.73484 17.9068 6.03853 18.0141C6.36537 18.1296 6.59998 18.4286 6.59998 18.7752C6.59998 19.2657 6.14334 19.6318 5.67812 19.4763C3.83043 18.8591 2.59998 17.757 2.59998 16.5C2.59998 15.2431 3.83043 14.141 5.67812 13.5237Z" fill="#2B1404"/>
</svg>
